<svg xmlns="http://www.w3.org/2000/svg" width="94.729" height="20.062" viewBox="0 0 94.729 20.062">
  <g id="Group_72" data-name="Group 72" transform="translate(-667 -478)">
    <path id="Path_956" data-name="Path 956" d="M667,510.584V508.4h12.83v2.184h-5.177v12.943h-2.459V510.584Z" transform="translate(0 -25.482)" fill="#ead2ab"/>
    <path id="Path_957" data-name="Path 957" d="M742.389,508.4h3.09l6.051,15.127h-2.718l-1.278-3.284h-7.3l-1.246,3.284H736.5Zm4.32,9.675-2.831-7.345h-.049l-2.783,7.345Z" transform="translate(-58.256 -25.482)" fill="#ead2ab"/>
    <path id="Path_958" data-name="Path 958" d="M845.5,508.4l4.514,11.94h.049l4.449-11.94h3.8v15.127h-2.378V510.568h-.049l-4.838,12.959h-2.2L843.9,510.568h-.049v12.959H841.6V508.4Z" transform="translate(-146.351 -25.482)" fill="#ead2ab"/>
    <path id="Path_959" data-name="Path 959" d="M960.1,508.4h7.523c3.333,0,5.145,1.375,5.145,3.786a3.23,3.23,0,0,1-2.653,3.349v.049a3.484,3.484,0,0,1,3.074,3.721c0,2.815-1.861,4.239-5.436,4.239h-7.62V508.4Zm7.62,6.245c1.618,0,2.589-.841,2.589-2.152,0-1.343-.922-2.022-2.621-2.022h-5.145v4.19h5.177Zm-.065,6.828c2.006,0,3.009-.825,3.009-2.394,0-1.6-1.019-2.378-3.009-2.378h-5.1v4.773Z" transform="translate(-245.679 -25.482)" fill="#ead2ab"/>
    <path id="Path_960" data-name="Path 960" d="M1056.1,508.4h2.459v15.127H1056.1Z" transform="translate(-326.147 -25.482)" fill="#ead2ab"/>
    <path id="Path_961" data-name="Path 961" d="M1171.7,508.4h3.139l7.62,12h.048v-12h2.265v15.127h-3.139l-7.62-12h-.048v12H1171.7Z" transform="translate(-423.044 -25.482)" fill="#ead2ab"/>
    <path id="Path_962" data-name="Path 962" d="M1236,478h1.019v.21h-.388v1.068h-.226V478.21h-.4Zm1.2,0h.372l.356.971.356-.971h.372v1.278h-.227v-1.1l-.4,1.1h-.21l-.4-1.1v1.1h-.21Z" transform="translate(-476.941)" fill="#ead2ab"/>
    <path id="Path_963" data-name="Path 963" d="M1086.5,508.4h11.325v2.136h-8.85v4.19h7.232v2.119h-7.232v4.546h8.85v2.136H1086.5Z" transform="translate(-351.629 -25.482)" fill="#ead2ab"/>
    <path id="Path_964" data-name="Path 964" d="M1116.272,478h2.459l-1.942,2.9h-1.99Z" transform="translate(-375.35)" fill="#ead2ab"/>
  </g>
</svg>
